# xmcd
#
# Track frame offsets:
#	182
#	12245
#	25650
#	44165
#	56045
#	71995
#	86147
#	97640
#	111092
#	125985
#	138540
#	154542
#	166945
#	181707
#	195245
#	207082
#
# Disc length: 2962
#
# Revision: 2
# Processed by: cddbd v1.5.1PL0 Copyright (c) Steve Scherf et al.
# Submitted via: EasyCDDAExtractor 5.0.6
# Normalized: r1:TDELIM( - )
#
DISCID=d70b9010
DTITLE=Stars von heute - 32 unvergessliche Schlager CD 1
DYEAR=1994
DGENRE=Ethnic
TTITLE0=Andy and Bernd - 7000 Rinder
TTITLE1=Gitti and Erika - Der treue Husar
TTITLE2=Orig. Bergland Echo - Erzherzog-Johann-Jodler
TTITLE3=Marianne and Michael - Das alte Forsthaus
TTITLE4=Karl Moik - Stimmungslieder-Potpurri
TTITLE5=Edith Prock - Du, Du liegst mir im Herzen
TTITLE6=Alpenland Quintett - Mariandl
TTITLE7=Geschwister Biberstein - Schneewalzer
TTITLE8=Alpenlandtrio Tirol - Ein Zigeuner
TTITLE9=Uschi and Marianne Hallstein - Heidi
TTITLE10=Louis Menar - Hirtengruss
TTITLE11=Trio Malaika - Im Kloster von Santa martina
TTITLE12=Robert Jung - Aus Böhmen kommt die Musik
TTITLE13=Peter Orloff - Hohe Tannen
TTITLE14=Carlo Brunner - Klarinetten-Muckl
TTITLE15=Coro Croz Corona - La Montanara
EXTD=
EXTT0=
EXTT1=
EXTT2=
EXTT3=
EXTT4=
EXTT5=
EXTT6=
EXTT7=
EXTT8=
EXTT9=
EXTT10=
EXTT11=
EXTT12=
EXTT13=
EXTT14=
EXTT15=
PLAYORDER=
